<?xml version="1.0" encoding="UTF-8" standalone="no"?>
<!DOCTYPE svg PUBLIC "-//W3C//DTD SVG 1.1//EN" "http://www.w3.org/Graphics/SVG/1.1/DTD/svg11.dtd">
<svg width="100%" height="100%" viewBox="0 0 2550 3300" version="1.1" xmlns="http://www.w3.org/2000/svg" xmlns:xlink="http://www.w3.org/1999/xlink" xml:space="preserve" xmlns:serif="http://www.serif.com/" style="fill-rule:evenodd;clip-rule:evenodd;stroke-linecap:round;stroke-linejoin:round;stroke-miterlimit:1.5;">
    <g id="All-Holes" serif:id="All Holes">
        <g id="Holes1">
            <g transform="matrix(1.21064,0,0,1.21064,-177.261,403.865)">
                <circle cx="621.535" cy="238.786" r="19.512" style="fill:none;stroke:black;stroke-width:0.34px;"/>
            </g>
            <g transform="matrix(1.21064,0,0,1.21064,22.3457,403.865)">
                <circle cx="621.535" cy="238.786" r="19.512" style="fill:none;stroke:black;stroke-width:0.34px;"/>
            </g>
            <g transform="matrix(1.23778,0,0,1.23778,-161.09,-232.703)">
                <circle cx="675" cy="978.658" r="62.024" style="fill:none;stroke:black;stroke-width:0.34px;"/>
            </g>
        </g>
        <g id="Holes3" transform="matrix(1,0,0,1,1200.13,0)">
            <g transform="matrix(1.21064,0,0,1.21064,-177.261,403.865)">
                <circle cx="621.535" cy="238.786" r="19.512" style="fill:none;stroke:black;stroke-width:0.34px;"/>
            </g>
            <g transform="matrix(1.21064,0,0,1.21064,22.3457,403.865)">
                <circle cx="621.535" cy="238.786" r="19.512" style="fill:none;stroke:black;stroke-width:0.34px;"/>
            </g>
            <g transform="matrix(1.23778,0,0,1.23778,-161.09,-232.703)">
                <circle cx="675" cy="978.658" r="62.024" style="fill:none;stroke:black;stroke-width:0.34px;"/>
            </g>
        </g>
        <g id="Holes4" transform="matrix(1,0,0,1,0,600)">
            <g transform="matrix(1.21064,0,0,1.21064,-177.261,403.865)">
                <circle cx="621.535" cy="238.786" r="19.512" style="fill:none;stroke:black;stroke-width:0.34px;"/>
            </g>
            <g transform="matrix(1.21064,0,0,1.21064,22.3457,403.865)">
                <circle cx="621.535" cy="238.786" r="19.512" style="fill:none;stroke:black;stroke-width:0.34px;"/>
            </g>
            <g transform="matrix(1.23778,0,0,1.23778,-161.09,-232.703)">
                <circle cx="675" cy="978.658" r="62.024" style="fill:none;stroke:black;stroke-width:0.34px;"/>
            </g>
        </g>
        <g id="Holes2" transform="matrix(1,0,0,1,599.865,0)">
            <g transform="matrix(1.21064,0,0,1.21064,-177.261,403.865)">
                <circle cx="621.535" cy="238.786" r="19.512" style="fill:none;stroke:black;stroke-width:0.34px;"/>
            </g>
            <g transform="matrix(1.21064,0,0,1.21064,22.3457,403.865)">
                <circle cx="621.535" cy="238.786" r="19.512" style="fill:none;stroke:black;stroke-width:0.34px;"/>
            </g>
            <g transform="matrix(1.23778,0,0,1.23778,-161.09,-232.703)">
                <circle cx="675" cy="978.658" r="62.024" style="fill:none;stroke:black;stroke-width:0.34px;"/>
            </g>
        </g>
        <g id="Holes5" transform="matrix(1,0,0,1,599.865,600)">
            <g transform="matrix(1.21064,0,0,1.21064,-177.261,403.865)">
                <circle cx="621.535" cy="238.786" r="19.512" style="fill:none;stroke:black;stroke-width:0.34px;"/>
            </g>
            <g transform="matrix(1.21064,0,0,1.21064,22.3457,403.865)">
                <circle cx="621.535" cy="238.786" r="19.512" style="fill:none;stroke:black;stroke-width:0.34px;"/>
            </g>
            <g transform="matrix(1.23778,0,0,1.23778,-161.09,-232.703)">
                <circle cx="675" cy="978.658" r="62.024" style="fill:none;stroke:black;stroke-width:0.34px;"/>
            </g>
        </g>
        <g id="Holes6" transform="matrix(1,0,0,1,1200.13,600)">
            <g transform="matrix(1.21064,0,0,1.21064,-177.261,403.865)">
                <circle cx="621.535" cy="238.786" r="19.512" style="fill:none;stroke:black;stroke-width:0.34px;"/>
            </g>
            <g transform="matrix(1.21064,0,0,1.21064,22.3457,403.865)">
                <circle cx="621.535" cy="238.786" r="19.512" style="fill:none;stroke:black;stroke-width:0.34px;"/>
            </g>
            <g transform="matrix(1.23778,0,0,1.23778,-161.09,-232.703)">
                <circle cx="675" cy="978.658" r="62.024" style="fill:none;stroke:black;stroke-width:0.34px;"/>
            </g>
        </g>
        <g id="Holes7" transform="matrix(1,0,0,1,0,1200)">
            <g transform="matrix(1.21064,0,0,1.21064,-177.261,403.865)">
                <circle cx="621.535" cy="238.786" r="19.512" style="fill:none;stroke:black;stroke-width:0.34px;"/>
            </g>
            <g transform="matrix(1.21064,0,0,1.21064,22.3457,403.865)">
                <circle cx="621.535" cy="238.786" r="19.512" style="fill:none;stroke:black;stroke-width:0.34px;"/>
            </g>
            <g transform="matrix(1.23778,0,0,1.23778,-161.09,-232.703)">
                <circle cx="675" cy="978.658" r="62.024" style="fill:none;stroke:black;stroke-width:0.34px;"/>
            </g>
        </g>
        <g id="Holes8" transform="matrix(1,0,0,1,599.865,1200)">
            <g transform="matrix(1.21064,0,0,1.21064,-177.261,403.865)">
                <circle cx="621.535" cy="238.786" r="19.512" style="fill:none;stroke:black;stroke-width:0.34px;"/>
            </g>
            <g transform="matrix(1.21064,0,0,1.21064,22.3457,403.865)">
                <circle cx="621.535" cy="238.786" r="19.512" style="fill:none;stroke:black;stroke-width:0.34px;"/>
            </g>
            <g transform="matrix(1.23778,0,0,1.23778,-161.09,-232.703)">
                <circle cx="675" cy="978.658" r="62.024" style="fill:none;stroke:black;stroke-width:0.34px;"/>
            </g>
        </g>
        <g id="Holes9" transform="matrix(1,0,0,1,1200.13,1200)">
            <g transform="matrix(1.21064,0,0,1.21064,-177.261,403.865)">
                <circle cx="621.535" cy="238.786" r="19.512" style="fill:none;stroke:black;stroke-width:0.34px;"/>
            </g>
            <g transform="matrix(1.21064,0,0,1.21064,22.3457,403.865)">
                <circle cx="621.535" cy="238.786" r="19.512" style="fill:none;stroke:black;stroke-width:0.34px;"/>
            </g>
            <g transform="matrix(1.23778,0,0,1.23778,-161.09,-232.703)">
                <circle cx="675" cy="978.658" r="62.024" style="fill:none;stroke:black;stroke-width:0.34px;"/>
            </g>
        </g>
    </g>
</svg>
